PathFileType	4	(X/Y/Z)	/tmp/tmpfnw413rt//results/MarkerData/Run_5.trc
DataRate	CameraRate	NumFrames	NumMarkers	Units	OrigDataRate	OrigDataStartFrame	OrigNumFrames
100	100	8	45	m	100	0	364
Frame#	Time	C7			CLAV			LACR			LASI			LCAL			LFAradius			LFAsuperior			LFAulna			LLEL			LMEL			LMT5			LPSH			LPSI			LTB1			LTB2			LTB3			LTH1			LTH2			LTH3			LTOE			LUA1			LUA2			LUA3			RACR			RASI			RCAL			RFAradius			RFAsuperior			RFAulna			RLEL			RLMAL			RMEL			RMMAL			RMT5			RPSI			RTB1			RTB2			RTB3			RTH1			RTH2			RTH3			RTOE			RUA1			RUA2			RUA3		
		X1	Y1	Z1	X2	Y2	Z2	X3	Y3	Z3	X4	Y4	Z4	X5	Y5	Z5	X6	Y6	Z6	X7	Y7	Z7	X8	Y8	Z8	X9	Y9	Z9	X10	Y10	Z10	X11	Y11	Z11	X12	Y12	Z12	X13	Y13	Z13	X14	Y14	Z14	X15	Y15	Z15	X16	Y16	Z16	X17	Y17	Z17	X18	Y18	Z18	X19	Y19	Z19	X20	Y20	Z20	X21	Y21	Z21	X22	Y22	Z22	X23	Y23	Z23	X24	Y24	Z24	X25	Y25	Z25	X26	Y26	Z26	X27	Y27	Z27	X28	Y28	Z28	X29	Y29	Z29	X30	Y30	Z30	X31	Y31	Z31	X32	Y32	Z32	X33	Y33	Z33	X34	Y34	Z34	X35	Y35	Z35	X36	Y36	Z36	X37	Y37	Z37	X38	Y38	Z38	X39	Y39	Z39	X40	Y40	Z40	X41	Y41	Z41	X42	Y42	Z42	X43	Y43	Z43	X44	Y44	Z44	X45	Y45	Z45

1	0.08	0.847731	1.56651	-0.361457	0.965157	1.48022	-0.341707	0.883085	1.53533	-0.522604	0.913007	1.0536	-0.447786	0.860076	0.08938	-0.31112	0.924629	1.15245	-0.596344	0.756953	1.16585	-0.654173	0.901817	1.09088	-0.611884	0.707814	1.24959	-0.679388	0.683457	1.23599	-0.594631	1.02619	0.0539632	-0.391912	0.800748	1.50319	-0.527551	0.754301	1.09116	-0.367003	1.01038	0.411595	-0.405285	0.930077	0.30841	-0.426159	0.97884	0.222445	-0.369123	0.847657	0.830117	-0.48978	0.954077	0.747459	-0.473356	0.931933	0.636756	-0.458924	1.08958	0.0706184	-0.321378	0.787369	1.43133	-0.598293	0.720133	1.36347	-0.5803	0.723134	1.32577	-0.646726	0.902228	1.55073	-0.209211	0.931159	1.05254	-0.216337	0.491663	0.658644	-0.320529	0.921609	1.19677	-0.0277633	0.747324	1.27578	0.0294235	0.894307	1.15383	0.015727	0.716476	1.35151	0.0157038	0.505536	0.606727	-0.245881	0.686066	1.31451	-0.0573997	0.517334	0.572878	-0.324314	0.423557	0.534279	-0.203241	0.763057	1.08846	-0.278524	0.780627	0.491262	-0.254591	0.728778	0.542838	-0.214504	0.60484	0.541551	-0.260779	0.85717	0.781947	-0.16894	0.940238	0.719416	-0.190419	0.883562	0.616174	-0.202363	0.418325	0.454672	-0.262078	0.824048	1.46462	-0.0931457	0.737511	1.43156	-0.103709	0.724964	1.40524	-0.0377986
2	0.09	0.847433	1.55629	-0.363137	0.965567	1.46936	-0.340865	0.887571	1.52584	-0.524204	0.909857	1.04432	-0.447856	0.813671	0.0904316	-0.30583	0.938393	1.14005	-0.594998	0.773749	1.1515	-0.6599	0.917786	1.07791	-0.613444	0.724223	1.23408	-0.685836	0.69649	1.21929	-0.602171	0.979033	0.0548759	-0.387296	0.805085	1.49338	-0.531208	0.750449	1.08471	-0.36922	0.990032	0.402992	-0.397477	0.899727	0.307026	-0.420067	0.944702	0.218139	-0.361177	0.843675	0.82319	-0.492015	0.94672	0.736179	-0.475222	0.92258	0.627626	-0.456839	1.04416	0.0678276	-0.318417	0.79569	1.41773	-0.601528	0.728897	1.348	-0.587347	0.736287	1.30977	-0.653379	0.899075	1.54198	-0.209503	0.928548	1.04311	-0.21583	0.521694	0.649632	-0.316648	0.907133	1.18595	-0.00807731	0.732173	1.27251	0.0323618	0.875043	1.14495	0.0339135	0.704568	1.3487	0.013204	0.538034	0.596437	-0.242933	0.677587	1.30924	-0.0600794	0.551122	0.564611	-0.321758	0.459197	0.520328	-0.201469	0.758711	1.08051	-0.2802	0.815746	0.487434	-0.252976	0.763522	0.536964	-0.211008	0.639135	0.534284	-0.257527	0.868566	0.775664	-0.168585	0.957224	0.717731	-0.187524	0.911021	0.611455	-0.198636	0.456697	0.441796	-0.26227	0.817412	1.45741	-0.0944969	0.731002	1.42472	-0.10786	0.71637	1.40009	-0.0417105
3	0.1	0.847171	1.54818	-0.365088	0.965775	1.46034	-0.339725	0.892038	1.51779	-0.526064	0.905643	1.03594	-0.447586	0.767924	0.091572	-0.301759	0.953228	1.13073	-0.592856	0.791342	1.13879	-0.663224	0.934796	1.06803	-0.612839	0.741087	1.21956	-0.690567	0.709603	1.20366	-0.608198	0.932659	0.0554785	-0.383623	0.809737	1.48411	-0.535416	0.746237	1.07906	-0.369737	0.96872	0.395712	-0.393014	0.870021	0.306627	-0.416471	0.909924	0.214908	-0.356544	0.836487	0.817741	-0.492897	0.936663	0.727762	-0.47667	0.910794	0.620516	-0.455318	0.998839	0.0659018	-0.31571	0.804631	1.40545	-0.604107	0.73785	1.33366	-0.594112	0.749708	1.29462	-0.658954	0.895421	1.53496	-0.209716	0.926	1.0338	-0.216077	0.549263	0.637263	-0.312632	0.891762	1.17624	0.00948128	0.717175	1.26918	0.0338537	0.855316	1.13723	0.0499542	0.692799	1.34562	0.00997062	0.569002	0.583359	-0.23998	0.669394	1.30381	-0.0635488	0.583824	0.553777	-0.319179	0.494721	0.502443	-0.19976	0.754596	1.07398	-0.280724	0.851245	0.485922	-0.251982	0.797984	0.532567	-0.20857	0.6733	0.526071	-0.255219	0.879989	0.772395	-0.168196	0.973998	0.720204	-0.185424	0.938031	0.611711	-0.196121	0.496533	0.425071	-0.262181	0.810207	1.45081	-0.0956972	0.724051	1.41764	-0.112328	0.707194	1.39482	-0.0462041
4	0.11	0.846975	1.54269	-0.367185	0.965656	1.45386	-0.33835	0.896481	1.5117	-0.527812	0.900827	1.02878	-0.447184	0.722921	0.0925904	-0.299331	0.969003	1.12577	-0.589283	0.809627	1.12848	-0.663526	0.952895	1.06242	-0.609451	0.758137	1.2068	-0.693046	0.722772	1.18997	-0.612094	0.887236	0.0556354	-0.381394	0.814689	1.47619	-0.53987	0.742062	1.07454	-0.36866	0.945767	0.389228	-0.391481	0.840843	0.306501	-0.415362	0.874277	0.212375	-0.355004	0.826045	0.813341	-0.492301	0.923848	0.721661	-0.477645	0.896226	0.614968	-0.454378	0.953756	0.0648288	-0.313717	0.814173	1.3953	-0.606154	0.746866	1.32144	-0.600047	0.76325	1.28115	-0.662811	0.891233	1.53002	-0.209889	0.923511	1.0253	-0.216832	0.574046	0.620749	-0.308434	0.875489	1.16801	0.0241435	0.702531	1.26615	0.0336454	0.835228	1.13107	0.0631419	0.681289	1.34261	0.00582007	0.598326	0.566924	-0.237019	0.661529	1.29861	-0.067873	0.615272	0.539926	-0.316638	0.530481	0.479993	-0.198054	0.751008	1.06924	-0.280042	0.88676	0.487376	-0.251704	0.831678	0.530013	-0.207458	0.706974	0.51683	-0.253921	0.891611	0.772788	-0.167853	0.990481	0.727811	-0.18454	0.964244	0.617755	-0.195002	0.538411	0.404113	-0.261817	0.802423	1.44546	-0.0970002	0.716791	1.41072	-0.11738	0.697488	1.3899	-0.051513
5	0.12	0.846799	1.53992	-0.369067	0.965091	1.45046	-0.336906	0.900832	1.50809	-0.528762	0.896592	1.02313	-0.447403	0.6787	0.0933434	-0.29867	0.98499	1.12649	-0.583498	0.828063	1.12151	-0.660573	0.971694	1.0623	-0.602923	0.774645	1.19687	-0.692936	0.735869	1.17943	-0.613245	0.842762	0.0553231	-0.380949	0.819729	1.47089	-0.543748	0.738827	1.07152	-0.366993	0.920296	0.382544	-0.39132	0.811495	0.305449	-0.415751	0.837608	0.209832	-0.355179	0.813656	0.80925	-0.49068	0.909204	0.716123	-0.478151	0.879143	0.609795	-0.453845	0.909162	0.0643142	-0.312984	0.823851	1.38828	-0.607901	0.755669	1.31261	-0.604229	0.776445	1.27063	-0.664251	0.886614	1.5273	-0.210084	0.921217	1.0191	-0.217568	0.596524	0.599744	-0.304047	0.858696	1.1617	0.0351146	0.688509	1.26415	0.0317283	0.815224	1.12685	0.0727642	0.670152	1.34052	0.000710024	0.626502	0.547012	-0.234073	0.653903	1.29449	-0.0729313	0.645642	0.523064	-0.314223	0.567309	0.45326	-0.196273	0.748541	1.06662	-0.278753	0.921467	0.492044	-0.252299	0.863852	0.529386	-0.207739	0.739755	0.506678	-0.253348	0.90351	0.777024	-0.167712	1.00639	0.740699	-0.185277	0.989103	0.62926	-0.195234	0.582955	0.379688	-0.261294	0.794267	1.44223	-0.0988474	0.7096	1.40492	-0.123269	0.687596	1.38623	-0.0577467
6	0.13	0.846464	1.53933	-0.370343	0.964113	1.45004	-0.335496	0.904862	1.5072	-0.528527	0.893994	1.01912	-0.449151	0.635341	0.0943816	-0.299167	1.00009	1.13326	-0.575309	0.845846	1.1185	-0.654884	0.990343	1.06807	-0.59356	0.789794	1.19044	-0.690477	0.74864	1.17276	-0.611585	0.799015	0.0548593	-0.381874	0.824444	1.46894	-0.546237	0.737306	1.0703	-0.366181	0.891947	0.375475	-0.391189	0.780802	0.30331	-0.416189	0.800043	0.207223	-0.355541	0.801658	0.805604	-0.489038	0.894254	0.709733	-0.478191	0.860431	0.604416	-0.453464	0.865268	0.0639577	-0.313452	0.832697	1.38474	-0.609212	0.764019	1.30762	-0.606009	0.788647	1.26392	-0.663211	0.881769	1.52657	-0.210283	0.919514	1.01667	-0.218086	0.618154	0.574653	-0.299581	0.842095	1.15764	0.0419989	0.675195	1.26384	0.0283331	0.796001	1.12466	0.0784223	0.659358	1.34015	-0.00512753	0.654661	0.52415	-0.231227	0.646248	1.29245	-0.0785247	0.675584	0.503712	-0.311966	0.606212	0.423621	-0.194453	0.747732	1.06627	-0.278068	0.954523	0.499259	-0.254076	0.894053	0.530209	-0.20911	0.771749	0.495837	-0.252963	0.915251	0.784549	-0.167894	1.02107	0.757535	-0.187557	1.01201	0.64461	-0.196549	0.630407	0.353622	-0.260795	0.786105	1.4416	-0.101426	0.702801	1.40146	-0.129782	0.678005	1.38471	-0.06457
7	0.14	0.845802	1.54039	-0.370907	0.962903	1.45205	-0.334041	0.908199	1.509	-0.527382	0.893207	1.01687	-0.452437	0.592948	0.097171	-0.299929	1.01336	1.14552	-0.565252	0.862307	1.11954	-0.647294	1.00788	1.07936	-0.582068	0.803165	1.1874	-0.686281	0.760754	1.16985	-0.607631	0.755684	0.0547795	-0.383235	0.828401	1.47014	-0.547196	0.737487	1.07106	-0.366897	0.861072	0.369301	-0.391054	0.747832	0.301689	-0.416007	0.761843	0.205618	-0.355618	0.791892	0.803662	-0.488166	0.879921	0.702977	-0.477725	0.840847	0.59983	-0.453126	0.821872	0.0635192	-0.31437	0.839738	1.38428	-0.609491	0.771796	1.30584	-0.605458	0.799375	1.2609	-0.660323	0.876897	1.52764	-0.210376	0.91886	1.01857	-0.218759	0.64066	0.546124	-0.295271	0.826381	1.15606	0.0447158	0.662489	1.26539	0.0236231	0.778239	1.12443	0.0799342	0.64878	1.34179	-0.0113518	0.684016	0.499035	-0.228624	0.638271	1.29306	-0.0846214	0.705973	0.482428	-0.309865	0.648001	0.392697	-0.192783	0.748545	1.06815	-0.278881	0.985456	0.507842	-0.257241	0.922389	0.531668	-0.211122	0.80358	0.484449	-0.252497	0.925976	0.794475	-0.168435	1.03374	0.776302	-0.190844	1.03231	0.662086	-0.198698	0.680606	0.327619	-0.260492	0.778252	1.44331	-0.104437	0.696355	1.40122	-0.13619	0.66903	1.38567	-0.0713013
8	0.15	0.844849	1.54308	-0.370997	0.961644	1.45601	-0.332391	0.910513	1.51333	-0.525931	0.893863	1.01676	-0.455904	0.551431	0.103535	-0.300523	1.02423	1.16221	-0.554127	0.877111	1.12422	-0.638485	1.0235	1.09533	-0.569192	0.814865	1.18717	-0.680998	0.771898	1.17006	-0.602223	0.712316	0.0553698	-0.384281	0.831374	1.47373	-0.547191	0.738757	1.07376	-0.36864	0.828367	0.365919	-0.391506	0.712564	0.302932	-0.415606	0.723188	0.206568	-0.355799	0.784712	0.804628	-0.488061	0.8661	0.697819	-0.476779	0.820616	0.597841	-0.452911	0.777974	0.0629227	-0.314924	0.844649	1.38616	-0.608314	0.778894	1.30619	-0.603198	0.80853	1.26085	-0.656453	0.87215	1.53046	-0.21027	0.919397	1.02414	-0.219917	0.665366	0.514782	-0.29142	0.812027	1.15696	0.0434065	0.650357	1.26856	0.0176272	0.762425	1.12595	0.0773432	0.638405	1.34522	-0.0177474	0.715424	0.472318	-0.226445	0.629909	1.29642	-0.0913768	0.737648	0.459669	-0.308051	0.693109	0.361828	-0.19153	0.750237	1.07194	-0.281018	1.01413	0.516698	-0.261407	0.94927	0.532929	-0.213382	0.835852	0.47256	-0.252244	0.935061	0.80576	-0.169398	1.04386	0.795247	-0.19454	1.04928	0.680411	-0.201518	0.733148	0.30268	-0.260588	0.770869	1.44678	-0.107388	0.689988	1.40441	-0.141759	0.660699	1.38893	-0.0773721
